<?xml version="1.0" encoding="UTF-8"?>
<svg width="252px" height="80px" viewBox="0 0 252 80" version="1.1" xmlns="http://www.w3.org/2000/svg" xmlns:xlink="http://www.w3.org/1999/xlink">
    <!-- Generator: Sketch 51.2 (57519) - http://www.bohemiancoding.com/sketch -->
    <title>Logo</title>
    <desc>Created with Sketch.</desc>
    <defs></defs>
    <g id="Landing-Page" stroke="none" stroke-width="1" fill="none" fill-rule="evenodd">
        <g id="Desktop-HD" transform="translate(-759.000000, -40.000000)" fill="#111">
            <g id="Logo" transform="translate(759.000000, 40.000000)">
                <path d="M228.74212,33.2665703 C228.748703,33.4718047 228.751995,33.6782212 228.751995,33.8858195 C228.751995,36.1252414 228.368942,38.2074796 227.602824,40.1325967 C226.836706,42.0577137 225.775943,43.7470768 224.420503,45.2007366 C223.065064,46.6543965 221.464098,47.7937344 219.617557,48.6187845 C217.771016,49.4438347 215.767353,49.8563536 213.606507,49.8563536 C209.834849,49.8563536 206.691848,48.5598656 204.177409,45.9668508 L204.177409,64 L193.510743,64 L193.510743,41.0935672 C192.625205,42.7841972 191.472769,44.2612838 190.053407,45.5248619 C188.442595,46.9588776 186.507685,48.0687499 184.248619,48.854512 C181.989553,49.640274 179.543905,50.0331492 176.911602,50.0331492 C174.318587,50.0331492 171.922049,49.640274 169.721915,48.854512 C167.521782,48.0687499 165.626159,46.9490558 164.034991,45.4953959 C162.683726,44.2609071 161.580398,42.8210146 160.724985,41.1756865 L160.724985,48.9134438 L150.058318,48.9134438 L150.058318,33.6500921 C150.058318,32.1178561 149.940455,30.8802994 149.704727,29.9373849 C149.468998,28.9944704 149.076123,28.2676514 148.52609,27.7569061 C147.583175,26.9318559 146.443837,26.519337 145.108042,26.519337 C143.300789,26.519337 141.915904,27.0595403 140.953346,28.1399632 C139.990787,29.220386 139.509515,30.7624209 139.509515,32.7661142 L139.509515,48.9134438 L128.842848,48.9134438 L128.842848,48.2809378 C126.326066,49.3312197 123.936074,49.8563536 121.672805,49.8563536 C119.472672,49.8563536 117.380612,49.4831222 115.396562,48.7366483 C113.412513,47.9901743 111.664219,46.9195895 110.151627,45.5248619 C108.639035,44.1301342 107.430944,42.4604149 106.527317,40.5156538 C105.623691,38.5708927 105.171885,36.4002575 105.171885,34.0036832 C105.171885,33.1401751 105.227989,32.3034489 105.340199,31.4935014 L87.9244936,64 L75.961326,64 L86.2744015,44.7882136 L75.2737876,25.1379235 L75.2737876,48.9134438 L64.6071209,48.9134438 L64.6071209,41.0935672 C63.7215835,42.7841972 62.5691469,44.2612838 61.1497851,45.5248619 C59.5389729,46.9588776 57.6040629,48.0687499 55.3449969,48.854512 C53.085931,49.640274 50.6402833,50.0331492 48.0079804,50.0331492 C45.4149655,50.0331492 43.0184272,49.640274 40.8182934,48.854512 C38.6181597,48.0687499 36.7225371,46.9490558 35.1313689,45.4953959 C33.5402008,44.0417361 32.2928222,42.3032636 31.3891958,40.2799263 C30.4855695,38.256589 30.033763,36.0073789 30.033763,33.5322284 C30.033763,32.6040126 30.1113839,31.7011138 30.2666266,30.8235275 C27.6487726,33.0615054 24.0221745,34.1804788 19.3867403,34.1804788 L12.5506446,34.1804788 L12.5506446,48.9134438 L1,48.9134438 L1,4.47882136 L19.3867403,4.47882136 C24.3763294,4.47882136 28.1970401,5.77530932 30.8489871,8.36832413 C33.5009341,10.9613389 34.8268877,14.6150777 34.8268877,19.3296501 C34.8268877,20.5378131 34.7398124,21.6763112 34.5656612,22.7451463 C34.7583773,22.5552811 34.9567685,22.3695141 35.1608349,22.1878453 C36.7716471,20.7538295 38.6869134,19.6243135 40.9066912,18.7992634 C43.126469,17.9742132 45.552473,17.5616943 48.1847759,17.5616943 C50.7777907,17.5616943 53.184151,17.9643913 55.4039288,18.7697974 C57.6237066,19.5752035 59.5487948,20.6948977 61.1792511,22.1289134 C62.5964435,23.3753598 63.7390584,24.8295641 64.6071209,26.4915603 L64.6071209,0 L75.2737876,0 L75.2737876,18.6813996 L84.0349908,18.6813996 L92.1086556,34.1804788 L99.946593,18.6813996 L112.20442,18.6813996 L110.512536,21.8393097 C111.895851,20.6267336 113.504204,19.6625025 115.33763,18.946593 C117.400256,18.1411869 119.610179,17.7384899 121.967465,17.7384899 C124.437524,17.7384899 126.729298,18.2375895 128.842848,19.235803 L128.842848,0 L139.509515,0 L139.509515,22.5119705 C140.963175,20.7440059 142.436457,19.5555586 143.929405,18.946593 C145.422352,18.3376274 147.170647,18.0331492 149.17434,18.0331492 C152.985286,18.0331492 155.863096,19.0840902 157.807858,21.1860037 C159.202384,22.6932196 160.096918,24.5791907 160.49147,26.8439483 C161.377495,25.0716496 162.568481,23.5196288 164.064457,22.1878453 C165.675269,20.7538295 167.590535,19.6243135 169.810313,18.7992634 C172.030091,17.9742132 174.456095,17.5616943 177.088398,17.5616943 C179.681413,17.5616943 182.087773,17.9643913 184.307551,18.7697974 C186.527328,19.5752035 188.452417,20.6948977 190.082873,22.1289134 C191.500065,23.3753598 192.64268,24.8295641 193.510743,26.4915603 L193.510743,18.6813996 L204.177409,18.6813996 L204.177409,22.0405157 C206.456119,19.1724841 209.559833,17.7384899 213.488643,17.7384899 C215.649489,17.7384899 217.662974,18.1608306 219.529159,19.0055249 C221.395344,19.8502191 223.015954,20.9993789 224.391037,22.4530387 C225.674525,23.8098686 226.692729,25.3891607 227.445675,27.1909566 C227.569584,26.0236002 227.860967,24.945221 228.319828,23.9558011 C228.948438,22.6003615 229.852051,21.4512018 231.030694,20.5082873 C232.209337,19.5653728 233.633509,18.8385538 235.303254,18.3278085 C236.972998,17.8170631 238.829333,17.5616943 240.872314,17.5616943 C244.211803,17.5616943 247.453023,18.2099383 250.596071,19.5064457 L247.001228,26.4604052 C245.036823,25.4389145 243.111734,24.9281768 241.225905,24.9281768 C240.243703,24.9281768 239.448131,25.1246144 238.839165,25.5174954 C238.2302,25.9103764 237.925721,26.4407579 237.925721,27.1086556 C237.925721,27.4622485 237.974831,27.747083 238.073051,27.9631676 C238.171271,28.1792522 238.387353,28.3855116 238.721301,28.5819521 C239.05525,28.7783926 239.546344,28.9551864 240.194598,29.1123389 C240.842852,29.2694913 241.697355,29.4659288 242.758134,29.7016575 C245.704742,30.290979 247.904842,31.34192 249.358502,32.854512 C250.812162,34.3671039 251.538981,36.302014 251.538981,38.6593002 C251.538981,40.4272648 251.185393,42.0184091 250.478207,43.4327808 C249.771022,44.8471526 248.788834,46.0355999 247.531614,46.9981584 C246.274395,47.9607169 244.761826,48.7071797 242.993861,49.2375691 C241.225897,49.7679585 239.281165,50.0331492 237.159607,50.0331492 C233.073644,50.0331492 229.046674,48.8741675 225.078576,46.5561694 L228.968079,39.0128913 C231.953974,41.0558727 234.782675,42.0773481 237.454266,42.0773481 C238.436469,42.0773481 239.241863,41.8612667 239.870473,41.4290976 C240.499082,40.9969285 240.813382,40.4469033 240.813382,39.7790055 C240.813382,39.3861245 240.764273,39.0620025 240.666053,38.8066298 C240.567833,38.5512572 240.361573,38.3155321 240.047268,38.0994475 C239.732963,37.8833629 239.271335,37.6869254 238.66237,37.5101289 C238.053404,37.3333324 237.257832,37.1467168 236.275629,36.9502762 C232.975429,36.2823785 230.667287,35.2903688 229.351136,33.9742173 C229.129462,33.752544 228.926457,33.5166618 228.74212,33.2665703 Z M128.842848,28.256287 C127.098914,27.137603 125.337521,26.5782689 123.558625,26.5782689 C122.537134,26.5782689 121.584412,26.7550627 120.70043,27.1086556 C119.816447,27.4622485 119.040519,27.9631643 118.372621,28.611418 C117.704723,29.2596717 117.184164,30.0257783 116.810927,30.9097606 C116.43769,31.7937429 116.251074,32.7857526 116.251074,33.8858195 C116.251074,34.9465983 116.43769,35.9189643 116.810927,36.8029466 C117.184164,37.6869289 117.694902,38.4530354 118.343155,39.1012891 C118.991409,39.7495428 119.767337,40.2504586 120.670964,40.6040516 C121.57459,40.9576445 122.537134,41.1344383 123.558625,41.1344383 C125.441463,41.1344383 127.202855,40.5273443 128.842849,39.3131393 L128.842848,28.2562869 Z M12.5506446,24.8692449 L16.3812155,24.8692449 C20.6243306,24.8692449 22.7458564,23.0227318 22.7458564,19.3296501 C22.7458564,15.6365684 20.6243306,13.7900552 16.3812155,13.7900552 L12.5506446,13.7900552 L12.5506446,24.8692449 Z M41.2897483,33.6500921 C41.2897483,34.6715828 41.476364,35.6046612 41.849601,36.4493554 C42.222838,37.2940497 42.7139319,38.0306905 43.3228975,38.6593002 C43.9318631,39.2879098 44.6586821,39.7790038 45.5033763,40.1325967 C46.3480705,40.4861896 47.2418615,40.6629834 48.1847759,40.6629834 C49.1276904,40.6629834 50.0214814,40.4861896 50.8661756,40.1325967 C51.7108698,39.7790038 52.4376888,39.2879098 53.0466544,38.6593002 C53.65562,38.0306905 54.1467139,37.2940497 54.5199509,36.4493554 C54.8931879,35.6046612 55.0798036,34.6912265 55.0798036,33.7090239 C55.0798036,32.7661095 54.8931879,31.8723185 54.5199509,31.0276243 C54.1467139,30.1829301 53.65562,29.4462892 53.0466544,28.8176796 C52.4376888,28.1890699 51.7108698,27.697976 50.8661756,27.3443831 C50.0214814,26.9907901 49.1276904,26.8139963 48.1847759,26.8139963 C47.2418615,26.8139963 46.3480705,26.9907901 45.5033763,27.3443831 C44.6586821,27.697976 43.9318631,28.1890699 43.3228975,28.8176796 C42.7139319,29.4462892 42.222838,30.1731082 41.849601,30.9981584 C41.476364,31.8232085 41.2897483,32.7071776 41.2897483,33.6500921 Z M170.19337,33.6500921 C170.19337,34.6715828 170.379986,35.6046612 170.753223,36.4493554 C171.12646,37.2940497 171.617554,38.0306905 172.226519,38.6593002 C172.835485,39.2879098 173.562304,39.7790038 174.406998,40.1325967 C175.251692,40.4861896 176.145483,40.6629834 177.088398,40.6629834 C178.031312,40.6629834 178.925103,40.4861896 179.769797,40.1325967 C180.614492,39.7790038 181.341311,39.2879098 181.950276,38.6593002 C182.559242,38.0306905 183.050336,37.2940497 183.423573,36.4493554 C183.79681,35.6046612 183.983425,34.6912265 183.983425,33.7090239 C183.983425,32.7661095 183.79681,31.8723185 183.423573,31.0276243 C183.050336,30.1829301 182.559242,29.4462892 181.950276,28.8176796 C181.341311,28.1890699 180.614492,27.697976 179.769797,27.3443831 C178.925103,26.9907901 178.031312,26.8139963 177.088398,26.8139963 C176.145483,26.8139963 175.251692,26.9907901 174.406998,27.3443831 C173.562304,27.697976 172.835485,28.1890699 172.226519,28.8176796 C171.617554,29.4462892 171.12646,30.1731082 170.753223,30.9981584 C170.379986,31.8232085 170.19337,32.7071776 170.19337,33.6500921 Z M217.613874,33.8858195 C217.613874,32.942905 217.446902,32.0491141 217.112953,31.2044199 C216.779004,30.3597257 216.297732,29.6230848 215.669122,28.9944751 C215.040513,28.3658655 214.303872,27.8649497 213.459177,27.4917127 C212.614483,27.1184757 211.701048,26.93186 210.718846,26.93186 C209.775931,26.93186 208.891962,27.1086538 208.066912,27.4622468 C207.241862,27.8158397 206.524865,28.3069336 205.915899,28.9355433 C205.306934,29.5641529 204.81584,30.3007938 204.442603,31.145488 C204.069366,31.9901822 203.88275,32.8839732 203.88275,33.8268877 C203.88275,34.7698021 204.059544,35.6537712 204.413137,36.4788214 C204.76673,37.3038715 205.257824,38.0208687 205.886433,38.6298343 C206.515043,39.2387999 207.251684,39.7298938 208.096378,40.1031308 C208.941072,40.4763677 209.834863,40.6629834 210.777778,40.6629834 C211.720692,40.6629834 212.604661,40.4861896 213.429711,40.1325967 C214.254762,39.7790038 214.971759,39.2879098 215.580724,38.6593002 C216.18969,38.0306905 216.680784,37.3038715 217.054021,36.4788214 C217.427258,35.6537712 217.613874,34.7894459 217.613874,33.8858195 Z" id="Polychops"></path>
                <path d="M0.875976562,77 L0.875976562,67.1890625 L3.89472656,67.1890625 C4.55508143,67.1890625 5.16039764,67.3024891 5.71069336,67.5293457 C6.26098908,67.7562023 6.73266405,68.0751444 7.12573242,68.4861816 C7.51880079,68.8972189 7.82538952,69.3902315 8.04550781,69.9652344 C8.2656261,70.5402373 8.37568359,71.1781215 8.37568359,71.8789062 L8.37568359,72.3236328 C8.37568359,73.0244176 8.26674914,73.6611788 8.04887695,74.2339355 C7.83100477,74.8066923 7.523293,75.2985819 7.12573242,75.7096191 C6.72817184,76.1206564 6.25312776,76.4384754 5.70058594,76.6630859 C5.14804411,76.8876964 4.53935879,77 3.87451172,77 L0.875976562,77 Z M2.89746094,68.8264648 L2.89746094,75.3760742 L3.87451172,75.3760742 C4.67412509,75.3760742 5.28281041,75.1121608 5.70058594,74.5843262 C6.11836146,74.0564915 6.32724609,73.3029346 6.32724609,72.3236328 L6.32724609,71.8654297 C6.32724609,70.8681591 6.12060754,70.1123561 5.70732422,69.597998 C5.2940409,69.08364 4.68984773,68.8264648 3.89472656,68.8264648 L2.89746094,68.8264648 Z M14.5322657,77.1347656 C13.9662472,77.1347656 13.4597581,77.0426767 13.0127832,76.8584961 C12.5658084,76.6743155 12.1862223,76.4227555 11.8740137,76.1038086 C11.5618051,75.7848617 11.3237216,75.4108908 11.1597559,74.9818848 C10.9957902,74.5528787 10.9138086,74.0935571 10.9138086,73.6039062 L10.9138086,73.3411133 C10.9138086,72.7885715 10.9935442,72.2820824 11.1530176,71.8216309 C11.3124911,71.3611793 11.5393443,70.9647478 11.833584,70.6323242 C12.1278238,70.2999007 12.4849491,70.0404794 12.9049707,69.8540527 C13.3249924,69.667626 13.7955443,69.5744141 14.3166407,69.5744141 C14.8422292,69.5744141 15.3049199,69.6608878 15.7047266,69.8338379 C16.1045333,70.006788 16.4403209,70.2493637 16.7120996,70.5615723 C16.9838784,70.8737809 17.1882708,71.2499978 17.3252832,71.6902344 C17.4622956,72.130471 17.5308008,72.6201145 17.5308008,73.1591797 L17.5308008,73.9879883 L12.888125,73.9879883 C12.9195705,74.2260754 12.9835835,74.4416983 13.0801661,74.6348633 C13.1767486,74.8280283 13.3002825,74.9931145 13.4507715,75.130127 C13.6012606,75.2671394 13.7775772,75.3738277 13.9797266,75.4501953 C14.181876,75.5265629 14.4087292,75.5647461 14.660293,75.5647461 C15.0151776,75.5647461 15.343104,75.498487 15.6440821,75.3659668 C15.9450601,75.2334466 16.2033583,75.0279311 16.4189844,74.7494141 L17.3758204,75.8208008 C17.2590229,75.9870125 17.1130283,76.1487297 16.9378321,76.305957 C16.7626359,76.4631844 16.5559973,76.6035638 16.3179102,76.7270996 C16.0798231,76.8506354 15.8114175,76.9494625 15.5126856,77.023584 C15.2139536,77.0977054 14.8871503,77.1347656 14.5322657,77.1347656 Z M14.3099024,71.1511719 C14.0987685,71.1511719 13.9134676,71.1882321 13.7539942,71.2623535 C13.5945207,71.336475 13.4575104,71.4397943 13.342959,71.5723145 C13.2284077,71.7048346 13.1351957,71.8631827 13.0633204,72.0473633 C12.991445,72.2315439 12.9397854,72.4359364 12.9083399,72.6605469 L15.6171289,72.6605469 L15.6171289,72.5055664 C15.6126367,72.3124014 15.5845608,72.1327157 15.5329004,71.9665039 C15.48124,71.8002921 15.4026275,71.6565436 15.2970606,71.5352539 C15.1914937,71.4139642 15.0567294,71.3196292 14.8927637,71.2522461 C14.728798,71.1848629 14.5345129,71.1511719 14.3099024,71.1511719 Z M22.1510548,77 L20.1969532,77 L20.1969532,66.65 L22.1510548,66.65 L22.1510548,77 Z M27.2699415,77 L25.31584,77 L25.31584,69.7091797 L27.2699415,69.7091797 L27.2699415,77 Z M25.2012892,67.8224609 C25.2012892,67.5304673 25.2989933,67.2901377 25.4944044,67.1014648 C25.6898155,66.912792 25.955975,66.818457 26.2928907,66.818457 C26.4591025,66.818457 26.6095893,66.8431638 26.7443556,66.8925781 C26.8791219,66.9419924 26.9936715,67.0116206 27.0880079,67.1014648 C27.1823443,67.191309 27.2553417,67.2979974 27.3070021,67.4215332 C27.3586625,67.545069 27.3844923,67.6787102 27.3844923,67.8224609 C27.3844923,67.9707039 27.3586625,68.1065912 27.3070021,68.230127 C27.2553417,68.3536627 27.1823443,68.4603511 27.0880079,68.5501953 C26.9936715,68.6400395 26.8791219,68.7096677 26.7443556,68.759082 C26.6095893,68.8084963 26.4591025,68.8332031 26.2928907,68.8332031 C26.126679,68.8332031 25.9761922,68.8084963 25.8414259,68.759082 C25.7066596,68.7096677 25.59211,68.6400395 25.4977736,68.5501953 C25.4034371,68.4603511 25.3304398,68.3536627 25.2787794,68.230127 C25.227119,68.1065912 25.2012892,67.9707039 25.2012892,67.8224609 Z M36.9034767,73.4219727 C36.9034767,73.9700223 36.8450789,74.4708962 36.7282814,74.9246094 C36.6114839,75.3783226 36.4351673,75.769139 36.1993263,76.0970703 C35.9634853,76.4250016 35.6681269,76.6799307 35.3132423,76.8618652 C34.9583578,77.0437997 34.5428346,77.1347656 34.0666603,77.1347656 C33.6443926,77.1347656 33.279406,77.0550301 32.9716896,76.8955566 C32.6639732,76.7360832 32.3978138,76.5125991 32.1732033,76.2250977 L32.0856056,77 L30.3336525,77 L30.3336525,66.65 L32.2810158,66.65 L32.2810158,70.362793 C32.4966419,70.1112292 32.7493249,69.916944 33.0390724,69.7799316 C33.32882,69.6429192 33.6668537,69.5744141 34.0531837,69.5744141 C34.529358,69.5744141 34.9460042,69.666503 35.3031349,69.8506836 C35.6602656,70.0348642 35.9578701,70.2909163 36.1959572,70.6188477 C36.4340443,70.946779 36.6114839,71.3375954 36.7282814,71.7913086 C36.8450789,72.2450218 36.9034767,72.7414036 36.9034767,73.2804687 L36.9034767,73.4219727 Z M34.9561134,73.2804687 C34.9561134,72.9929673 34.9358988,72.7200697 34.8954689,72.4617676 C34.855039,72.2034655 34.7820417,71.9777353 34.6764748,71.7845703 C34.5709078,71.5914053 34.4282823,71.4386724 34.2485939,71.3263672 C34.0689055,71.2140619 33.8398062,71.1579102 33.5612892,71.1579102 C33.2333579,71.1579102 32.9660754,71.2241693 32.7594337,71.3566895 C32.5527921,71.4892096 32.393321,71.6767566 32.2810158,71.9193359 L32.2810158,74.796582 C32.393321,75.0391614 32.5527921,75.2278314 32.7594337,75.3625977 C32.9660754,75.497364 33.23785,75.5647461 33.5747658,75.5647461 C33.8487906,75.5647461 34.0745207,75.5108404 34.251963,75.4030273 C34.4294053,75.2952143 34.5709078,75.1469736 34.6764748,74.9583008 C34.7820417,74.769628 34.855039,74.5438978 34.8954689,74.2811035 C34.9358988,74.0183092 34.9561134,73.7319351 34.9561134,73.4219727 L34.9561134,73.2804687 Z M42.9185549,77.1347656 C42.3525364,77.1347656 41.8460473,77.0426767 41.3990725,76.8584961 C40.9520976,76.6743155 40.5725115,76.4227555 40.2603029,76.1038086 C39.9480943,75.7848617 39.7100108,75.4108908 39.5460451,74.9818848 C39.3820794,74.5528787 39.3000978,74.0935571 39.3000978,73.6039062 L39.3000978,73.3411133 C39.3000978,72.7885715 39.3798334,72.2820824 39.5393068,71.8216309 C39.6987803,71.3611793 39.9256335,70.9647478 40.2198732,70.6323242 C40.514113,70.2999007 40.8712383,70.0404794 41.29126,69.8540527 C41.7112816,69.667626 42.1818335,69.5744141 42.7029299,69.5744141 C43.2285184,69.5744141 43.6912091,69.6608878 44.0910158,69.8338379 C44.4908225,70.006788 44.8266102,70.2493637 45.0983889,70.5615723 C45.3701676,70.8737809 45.5745601,71.2499978 45.7115725,71.6902344 C45.8485849,72.130471 45.91709,72.6201145 45.91709,73.1591797 L45.91709,73.9879883 L41.2744143,73.9879883 C41.3058597,74.2260754 41.3698728,74.4416983 41.4664553,74.6348633 C41.5630378,74.8280283 41.6865717,74.9931145 41.8370607,75.130127 C41.9875498,75.2671394 42.1638664,75.3738277 42.3660158,75.4501953 C42.5681653,75.5265629 42.7950185,75.5647461 43.0465822,75.5647461 C43.4014668,75.5647461 43.7293932,75.498487 44.0303713,75.3659668 C44.3313494,75.2334466 44.5896476,75.0279311 44.8052736,74.7494141 L45.7621096,75.8208008 C45.6453121,75.9870125 45.4993175,76.1487297 45.3241213,76.305957 C45.1489251,76.4631844 44.9422865,76.6035638 44.7041994,76.7270996 C44.4661123,76.8506354 44.1977068,76.9494625 43.8989748,77.023584 C43.6002428,77.0977054 43.2734395,77.1347656 42.9185549,77.1347656 Z M42.6961916,71.1511719 C42.4850577,71.1511719 42.2997568,71.1882321 42.1402834,71.2623535 C41.9808099,71.336475 41.8437996,71.4397943 41.7292482,71.5723145 C41.6146969,71.7048346 41.5214849,71.8631827 41.4496096,72.0473633 C41.3777342,72.2315439 41.3260746,72.4359364 41.2946291,72.6605469 L44.0034182,72.6605469 L44.0034182,72.5055664 C43.9989259,72.3124014 43.9708501,72.1327157 43.9191896,71.9665039 C43.8675292,71.8002921 43.7889167,71.6565436 43.6833498,71.5352539 C43.5777829,71.4139642 43.4430186,71.3196292 43.2790529,71.2522461 C43.1150873,71.1848629 42.9208021,71.1511719 42.6961916,71.1511719 Z M52.5790432,71.5352539 C52.4802146,71.5217773 52.3645419,71.5094239 52.2320217,71.4981934 C52.0995015,71.4869628 51.9815828,71.4813477 51.8782619,71.4813477 C51.4964241,71.4813477 51.1875893,71.5453607 50.9517483,71.6733887 C50.7159073,71.8014167 50.5418367,71.9867175 50.4295315,72.2292969 L50.4295315,77 L48.4821682,77 L48.4821682,69.7091797 L50.321719,69.7091797 L50.3756252,70.578418 C50.5598058,70.2639633 50.786659,70.0180185 51.0561916,69.8405762 C51.3257242,69.6631339 51.6401742,69.5744141 51.999551,69.5744141 C52.1028718,69.5744141 52.2118063,69.5833983 52.3263577,69.6013672 C52.440909,69.619336 52.534121,69.6395507 52.6059963,69.6620117 L52.5790432,71.5352539 Z M58.9984182,77 C58.908574,76.8248038 58.843438,76.6069349 58.8030081,76.3463867 C58.6053508,76.566505 58.35716,76.7529289 58.058428,76.9056641 C57.759696,77.0583992 57.3947095,77.1347656 56.9634573,77.1347656 C56.6130649,77.1347656 56.2862615,77.0808599 55.9830374,76.9730469 C55.6798132,76.8652338 55.4170229,76.7147471 55.1946585,76.521582 C54.9722941,76.328417 54.7982236,76.0981947 54.6724417,75.8309082 C54.5466598,75.5636217 54.4837698,75.2705094 54.4837698,74.9515625 C54.4837698,74.5697247 54.554521,74.2305679 54.6960257,73.934082 C54.8375303,73.6375962 55.049784,73.3860362 55.3327932,73.1793945 C55.6158025,72.9727529 55.9673126,72.8155279 56.3873343,72.7077148 C56.8073559,72.5999018 57.2958764,72.5459961 57.8529104,72.5459961 L58.7221487,72.5459961 L58.7221487,72.1282227 C58.7221487,71.7913069 58.635675,71.5217784 58.4627249,71.3196289 C58.2897748,71.1174795 58.0168771,71.0164063 57.6440237,71.0164063 C57.3160924,71.0164063 57.0589172,71.0950187 56.8724905,71.2522461 C56.6860638,71.4094734 56.5928518,71.6250963 56.5928518,71.8991211 L54.6454885,71.8991211 C54.6454885,71.5846664 54.7184859,71.2859389 54.8644827,71.0029297 C55.0104795,70.7199205 55.2182411,70.4728526 55.4877737,70.2617188 C55.7573063,70.0505849 56.0829866,69.8832526 56.4648245,69.7597168 C56.8466623,69.636181 57.2734159,69.5744141 57.7450979,69.5744141 C58.1673657,69.5744141 58.5581821,69.6283198 58.9175589,69.7361328 C59.2769357,69.8439459 59.5868935,70.0045399 59.8474417,70.2179199 C60.1079899,70.4312999 60.3112593,70.6985824 60.4572561,71.0197754 C60.603253,71.3409684 60.6762503,71.7149393 60.6762503,72.1416992 L60.6762503,75.227832 C60.6762503,75.4344737 60.6829885,75.6197746 60.6964651,75.7837402 C60.7099417,75.9477059 60.7279103,76.0959466 60.7503714,76.2284668 C60.7728324,76.360987 60.8020313,76.4800288 60.837969,76.5855957 C60.8739067,76.6911626 60.9165821,76.7911128 60.9659964,76.8854492 L60.9659964,77 L58.9984182,77 Z M57.387969,75.6456055 C57.5541808,75.6456055 57.7080367,75.6253908 57.8495413,75.5849609 C57.9910459,75.544531 58.1179489,75.4917484 58.2302542,75.4266113 C58.3425594,75.3614743 58.4402635,75.2862309 58.5233694,75.2008789 C58.6064753,75.1155269 58.6727344,75.0279301 58.7221487,74.9380859 L58.7221487,73.6847656 L57.9202932,73.6847656 C57.6642373,73.6847656 57.4418762,73.7128415 57.2532034,73.7689941 C57.0645306,73.8251468 56.9095517,73.9037593 56.788262,74.004834 C56.6669723,74.1059087 56.5771295,74.2249505 56.5187307,74.3619629 C56.460332,74.4989753 56.4311331,74.648339 56.4311331,74.8100586 C56.4311331,75.0526379 56.5164838,75.2525383 56.6871878,75.4097656 C56.8578917,75.566993 57.0914832,75.6456055 57.387969,75.6456055 Z M65.9635941,67.9167969 L65.9635941,69.7091797 L67.2101761,69.7091797 L67.2101761,71.1376953 L65.9635941,71.1376953 L65.9635941,74.7763672 C65.9635941,74.9291023 65.9793166,75.0548823 66.010762,75.1537109 C66.0422075,75.2525396 66.089375,75.330029 66.1522659,75.3861816 C66.2151569,75.4423343 66.2926463,75.4805175 66.3847366,75.5007324 C66.4768269,75.5209474 66.5857614,75.5310547 66.7115433,75.5310547 C66.8283407,75.5310547 66.9350291,75.5265625 67.0316116,75.5175781 C67.1281941,75.5085937 67.2124218,75.4973633 67.2842972,75.4838867 L67.2842972,76.9595703 C67.1225776,77.0089846 66.946261,77.0505369 66.7553421,77.0842285 C66.5644232,77.1179201 66.3476773,77.1347656 66.105098,77.1347656 C65.7861511,77.1347656 65.4986539,77.0954594 65.242598,77.0168457 C64.986542,76.938232 64.76755,76.8135751 64.5856155,76.6428711 C64.403681,76.4721671 64.2633016,76.2498061 64.164473,75.9757812 C64.0656443,75.7017564 64.0162308,75.371584 64.0162308,74.9852539 L64.0162308,71.1376953 L62.9515823,71.1376953 L62.9515823,69.7091797 L64.0162308,69.7091797 L64.0162308,67.9167969 L65.9635941,67.9167969 Z M73.1107035,77.1347656 C72.544685,77.1347656 72.0381959,77.0426767 71.591221,76.8584961 C71.1442462,76.6743155 70.7646601,76.4227555 70.4524515,76.1038086 C70.1402429,75.7848617 69.9021594,75.4108908 69.7381937,74.9818848 C69.574228,74.5528787 69.4922464,74.0935571 69.4922464,73.6039062 L69.4922464,73.3411133 C69.4922464,72.7885715 69.571982,72.2820824 69.7314554,71.8216309 C69.8909289,71.3611793 70.1177821,70.9647478 70.4120218,70.6323242 C70.7062616,70.2999007 71.0633869,70.0404794 71.4834085,69.8540527 C71.9034302,69.667626 72.3739821,69.5744141 72.8950785,69.5744141 C73.420667,69.5744141 73.8833577,69.6608878 74.2831644,69.8338379 C74.6829711,70.006788 75.0187588,70.2493637 75.2905375,70.5615723 C75.5623162,70.8737809 75.7667086,71.2499978 75.903721,71.6902344 C76.0407335,72.130471 76.1092386,72.6201145 76.1092386,73.1591797 L76.1092386,73.9879883 L71.4665628,73.9879883 C71.4980083,74.2260754 71.5620213,74.4416983 71.6586039,74.6348633 C71.7551864,74.8280283 71.8787203,74.9931145 72.0292093,75.130127 C72.1796984,75.2671394 72.356015,75.3738277 72.5581644,75.4501953 C72.7603139,75.5265629 72.9871671,75.5647461 73.2387308,75.5647461 C73.5936154,75.5647461 73.9215418,75.498487 74.2225199,75.3659668 C74.5234979,75.2334466 74.7817961,75.0279311 74.9974222,74.7494141 L75.9542582,75.8208008 C75.8374607,75.9870125 75.6914661,76.1487297 75.5162699,76.305957 C75.3410737,76.4631844 75.1344351,76.6035638 74.896348,76.7270996 C74.6582609,76.8506354 74.3898554,76.9494625 74.0911234,77.023584 C73.7923914,77.0977054 73.4655881,77.1347656 73.1107035,77.1347656 Z M72.8883402,71.1511719 C72.6772063,71.1511719 72.4919054,71.1882321 72.332432,71.2623535 C72.1729585,71.336475 72.0359482,71.4397943 71.9213968,71.5723145 C71.8068455,71.7048346 71.7136335,71.8631827 71.6417582,72.0473633 C71.5698828,72.2315439 71.5182232,72.4359364 71.4867777,72.6605469 L74.1955667,72.6605469 L74.1955667,72.5055664 C74.1910745,72.3124014 74.1629986,72.1327157 74.1113382,71.9665039 C74.0596778,71.8002921 73.9810653,71.6565436 73.8754984,71.5352539 C73.7699315,71.4139642 73.6351672,71.3196292 73.4712015,71.2522461 C73.3072359,71.1848629 73.1129507,71.1511719 72.8883402,71.1511719 Z M90.1339262,73.4219727 C90.1339262,73.9520534 90.0721592,74.443943 89.9486235,74.8976562 C89.8250877,75.3513695 89.644279,75.7433089 89.4061918,76.0734863 C89.1681047,76.4036638 88.8727463,76.663085 88.5201078,76.8517578 C88.1674694,77.0404306 87.7620535,77.1347656 87.3038481,77.1347656 C86.917518,77.1347656 86.5772382,77.0673835 86.2829985,76.9326172 C85.9887587,76.7978509 85.7338296,76.6091809 85.5182035,76.3666016 L85.5182035,79.803125 L83.5708403,79.803125 L83.5708403,69.7091797 L85.3766996,69.7091797 L85.4440825,70.4234375 C85.6686929,70.1539049 85.9303603,69.9450203 86.2290922,69.7967773 C86.5278242,69.6485344 86.8815804,69.5744141 87.2903715,69.5744141 C87.7530691,69.5744141 88.1618541,69.6631339 88.5167387,69.8405762 C88.8716233,70.0180185 89.1681047,70.2695784 89.4061918,70.5952637 C89.644279,70.9209489 89.8250877,71.3117653 89.9486235,71.7677246 C90.0721592,72.2236839 90.1339262,72.7279269 90.1339262,73.2804687 L90.1339262,73.4219727 Z M88.1865629,73.2804687 C88.1865629,72.9794907 88.1607331,72.6998548 88.1090727,72.4415527 C88.0574123,72.1832507 87.9754307,71.9586435 87.8631254,71.7677246 C87.7508202,71.5768057 87.6059486,71.4274419 87.4285063,71.3196289 C87.251064,71.2118159 87.0343181,71.1579102 86.7782621,71.1579102 C86.4593152,71.1579102 86.1976479,71.217431 85.9932524,71.3364746 C85.7888568,71.4555182 85.6305088,71.6295887 85.5182035,71.8586914 L85.5182035,74.84375 C85.6305088,75.0683605 85.7888568,75.2446771 85.9932524,75.3727051 C86.1976479,75.5007331 86.4638074,75.5647461 86.7917387,75.5647461 C87.0477947,75.5647461 87.2645405,75.5085943 87.4419828,75.3962891 C87.6194251,75.2839838 87.7631737,75.1301279 87.8732328,74.9347168 C87.983292,74.7393057 88.0630275,74.5113294 88.1124418,74.2507813 C88.1618561,73.9902331 88.1865629,73.7139663 88.1865629,73.4219727 L88.1865629,73.2804687 Z M96.8969536,71.5352539 C96.798125,71.5217773 96.6824523,71.5094239 96.5499321,71.4981934 C96.4174119,71.4869628 96.2994932,71.4813477 96.1961723,71.4813477 C95.8143345,71.4813477 95.5054997,71.5453607 95.2696587,71.6733887 C95.0338176,71.8014167 94.8597471,71.9867175 94.7474419,72.2292969 L94.7474419,77 L92.8000786,77 L92.8000786,69.7091797 L94.6396294,69.7091797 L94.6935356,70.578418 C94.8777162,70.2639633 95.1045694,70.0180185 95.374102,69.8405762 C95.6436346,69.6631339 95.9580846,69.5744141 96.3174614,69.5744141 C96.4207822,69.5744141 96.5297167,69.5833983 96.644268,69.6013672 C96.7588194,69.619336 96.8520313,69.6395507 96.9239067,69.6620117 L96.8969536,71.5352539 Z M103.316329,77 C103.226484,76.8248038 103.161348,76.6069349 103.120918,76.3463867 C102.923261,76.566505 102.67507,76.7529289 102.376338,76.9056641 C102.077606,77.0583992 101.71262,77.1347656 101.281368,77.1347656 C100.930975,77.1347656 100.604172,77.0808599 100.300948,76.9730469 C99.9977236,76.8652338 99.7349332,76.7147471 99.5125689,76.521582 C99.2902045,76.328417 99.1161339,76.0981947 98.9903521,75.8309082 C98.8645702,75.5636217 98.8016802,75.2705094 98.8016802,74.9515625 C98.8016802,74.5697247 98.8724314,74.2305679 99.013936,73.934082 C99.1554407,73.6375962 99.3676944,73.3860362 99.6507036,73.1793945 C99.9337128,72.9727529 100.285223,72.8155279 100.705245,72.7077148 C101.125266,72.5999018 101.613787,72.5459961 102.170821,72.5459961 L103.040059,72.5459961 L103.040059,72.1282227 C103.040059,71.7913069 102.953585,71.5217784 102.780635,71.3196289 C102.607685,71.1174795 102.334788,71.0164063 101.961934,71.0164063 C101.634003,71.0164063 101.376828,71.0950187 101.190401,71.2522461 C101.003974,71.4094734 100.910762,71.6250963 100.910762,71.8991211 L98.9633989,71.8991211 C98.9633989,71.5846664 99.0363963,71.2859389 99.1823931,71.0029297 C99.3283899,70.7199205 99.5361515,70.4728526 99.8056841,70.2617188 C100.075217,70.0505849 100.400897,69.8832526 100.782735,69.7597168 C101.164573,69.636181 101.591326,69.5744141 102.063008,69.5744141 C102.485276,69.5744141 102.876092,69.6283198 103.235469,69.7361328 C103.594846,69.8439459 103.904804,70.0045399 104.165352,70.2179199 C104.4259,70.4312999 104.62917,70.6985824 104.775167,71.0197754 C104.921163,71.3409684 104.994161,71.7149393 104.994161,72.1416992 L104.994161,75.227832 C104.994161,75.4344737 105.000899,75.6197746 105.014375,75.7837402 C105.027852,75.9477059 105.045821,76.0959466 105.068282,76.2284668 C105.090743,76.360987 105.119942,76.4800288 105.155879,76.5855957 C105.191817,76.6911626 105.234492,76.7911128 105.283907,76.8854492 L105.283907,77 L103.316329,77 Z M101.705879,75.6456055 C101.872091,75.6456055 102.025947,75.6253908 102.167452,75.5849609 C102.308956,75.544531 102.435859,75.4917484 102.548165,75.4266113 C102.66047,75.3614743 102.758174,75.2862309 102.84128,75.2008789 C102.924386,75.1155269 102.990645,75.0279301 103.040059,74.9380859 L103.040059,73.6847656 L102.238204,73.6847656 C101.982148,73.6847656 101.759787,73.7128415 101.571114,73.7689941 C101.382441,73.8251468 101.227462,73.9037593 101.106172,74.004834 C100.984883,74.1059087 100.89504,74.2249505 100.836641,74.3619629 C100.778242,74.4989753 100.749043,74.648339 100.749043,74.8100586 C100.749043,75.0526379 100.834394,75.2525383 101.005098,75.4097656 C101.175802,75.566993 101.409394,75.6456055 101.705879,75.6456055 Z M110.982286,75.5647461 C111.161974,75.5647461 111.325937,75.5389163 111.47418,75.4872559 C111.622423,75.4355954 111.750449,75.3625981 111.858262,75.2682617 C111.966075,75.1739253 112.050303,75.0604987 112.110948,74.9279785 C112.171593,74.7954583 112.204161,74.6460946 112.208653,74.4798828 L114.034727,74.4798828 C114.030235,74.8662129 113.949376,75.2222152 113.792149,75.5479004 C113.634922,75.8735856 113.421545,76.1543445 113.152012,76.3901855 C112.88248,76.6260266 112.564661,76.8090814 112.198545,76.9393555 C111.83243,77.0696296 111.438245,77.1347656 111.015977,77.1347656 C110.449959,77.1347656 109.955823,77.0393076 109.533555,76.8483887 C109.111287,76.6574697 108.7609,76.3969255 108.482383,76.066748 C108.203866,75.7365706 107.994982,75.3480003 107.855723,74.9010254 C107.716465,74.4540505 107.646836,73.9722682 107.646836,73.4556641 L107.646836,73.2669922 C107.646836,72.750388 107.716465,72.2674827 107.855723,71.8182617 C107.994982,71.3690407 108.203866,70.9782243 108.482383,70.6458008 C108.7609,70.3133772 109.110164,70.0517099 109.530186,69.860791 C109.950208,69.6698721 110.440974,69.5744141 111.002501,69.5744141 C111.451722,69.5744141 111.86163,69.6406732 112.232237,69.7731934 C112.602844,69.9057136 112.920663,70.0955066 113.185704,70.3425781 C113.450744,70.5896497 113.657383,70.8895002 113.805626,71.2421387 C113.953868,71.5947772 114.030235,71.9889627 114.034727,72.424707 L112.208653,72.424707 C112.204161,72.2495108 112.173839,72.0844246 112.117686,71.9294434 C112.061533,71.7744621 111.981798,71.6396978 111.878477,71.5251465 C111.775156,71.4105951 111.64713,71.3196292 111.494395,71.2522461 C111.34166,71.1848629 111.166466,71.1511719 110.968809,71.1511719 C110.6858,71.1511719 110.454455,71.2095697 110.274766,71.3263672 C110.095078,71.4431646 109.954698,71.5992666 109.853624,71.7946777 C109.752549,71.9900889 109.684044,72.215819 109.648106,72.471875 C109.612168,72.727931 109.5942,72.9929674 109.5942,73.2669922 L109.5942,73.4556641 C109.5942,73.7341811 109.612168,74.0014636 109.648106,74.2575195 C109.684044,74.5135755 109.752549,74.7381826 109.853624,74.9313477 C109.954698,75.1245127 110.095078,75.2783686 110.274766,75.3929199 C110.454455,75.5074713 110.690292,75.5647461 110.982286,75.5647461 Z M118.937989,67.9167969 L118.937989,69.7091797 L120.184571,69.7091797 L120.184571,71.1376953 L118.937989,71.1376953 L118.937989,74.7763672 C118.937989,74.9291023 118.953711,75.0548823 118.985157,75.1537109 C119.016602,75.2525396 119.06377,75.330029 119.126661,75.3861816 C119.189552,75.4423343 119.267041,75.4805175 119.359131,75.5007324 C119.451222,75.5209474 119.560156,75.5310547 119.685938,75.5310547 C119.802736,75.5310547 119.909424,75.5265625 120.006006,75.5175781 C120.102589,75.5085937 120.186817,75.4973633 120.258692,75.4838867 L120.258692,76.9595703 C120.096972,77.0089846 119.920656,77.0505369 119.729737,77.0842285 C119.538818,77.1179201 119.322072,77.1347656 119.079493,77.1347656 C118.760546,77.1347656 118.473049,77.0954594 118.216993,77.0168457 C117.960937,76.938232 117.741945,76.8135751 117.56001,76.6428711 C117.378076,76.4721671 117.237696,76.2498061 117.138868,75.9757812 C117.040039,75.7017564 116.990626,75.371584 116.990626,74.9852539 L116.990626,71.1376953 L115.925977,71.1376953 L115.925977,69.7091797 L116.990626,69.7091797 L116.990626,67.9167969 L118.937989,67.9167969 Z M124.78461,77 L122.830508,77 L122.830508,69.7091797 L124.78461,69.7091797 L124.78461,77 Z M122.715958,67.8224609 C122.715958,67.5304673 122.813662,67.2901377 123.009073,67.1014648 C123.204484,66.912792 123.470643,66.818457 123.807559,66.818457 C123.973771,66.818457 124.124258,66.8431638 124.259024,66.8925781 C124.39379,66.9419924 124.50834,67.0116206 124.602676,67.1014648 C124.697013,67.191309 124.77001,67.2979974 124.821671,67.4215332 C124.873331,67.545069 124.899161,67.6787102 124.899161,67.8224609 C124.899161,67.9707039 124.873331,68.1065912 124.821671,68.230127 C124.77001,68.3536627 124.697013,68.4603511 124.602676,68.5501953 C124.50834,68.6400395 124.39379,68.7096677 124.259024,68.759082 C124.124258,68.8084963 123.973771,68.8332031 123.807559,68.8332031 C123.641347,68.8332031 123.490861,68.8084963 123.356094,68.759082 C123.221328,68.7096677 123.106778,68.6400395 123.012442,68.5501953 C122.918106,68.4603511 122.845108,68.3536627 122.793448,68.230127 C122.741787,68.1065912 122.715958,67.9707039 122.715958,67.8224609 Z M130.880548,75.5647461 C131.060236,75.5647461 131.224199,75.5389163 131.372442,75.4872559 C131.520685,75.4355954 131.648711,75.3625981 131.756524,75.2682617 C131.864337,75.1739253 131.948565,75.0604987 132.00921,74.9279785 C132.069854,74.7954583 132.102423,74.6460946 132.106915,74.4798828 L133.932989,74.4798828 C133.928497,74.8662129 133.847638,75.2222152 133.690411,75.5479004 C133.533183,75.8735856 133.319807,76.1543445 133.050274,76.3901855 C132.780741,76.6260266 132.462922,76.8090814 132.096807,76.9393555 C131.730692,77.0696296 131.336507,77.1347656 130.914239,77.1347656 C130.34822,77.1347656 129.854085,77.0393076 129.431817,76.8483887 C129.009549,76.6574697 128.659162,76.3969255 128.380645,76.066748 C128.102128,75.7365706 127.893244,75.3480003 127.753985,74.9010254 C127.614727,74.4540505 127.545098,73.9722682 127.545098,73.4556641 L127.545098,73.2669922 C127.545098,72.750388 127.614727,72.2674827 127.753985,71.8182617 C127.893244,71.3690407 128.102128,70.9782243 128.380645,70.6458008 C128.659162,70.3133772 129.008426,70.0517099 129.428448,69.860791 C129.84847,69.6698721 130.339236,69.5744141 130.900762,69.5744141 C131.349983,69.5744141 131.759891,69.6406732 132.130499,69.7731934 C132.501106,69.9057136 132.818925,70.0955066 133.083965,70.3425781 C133.349006,70.5896497 133.555644,70.8895002 133.703887,71.2421387 C133.85213,71.5947772 133.928497,71.9889627 133.932989,72.424707 L132.106915,72.424707 C132.102423,72.2495108 132.072101,72.0844246 132.015948,71.9294434 C131.959795,71.7744621 131.88006,71.6396978 131.776739,71.5251465 C131.673418,71.4105951 131.545392,71.3196292 131.392657,71.2522461 C131.239922,71.1848629 131.064728,71.1511719 130.867071,71.1511719 C130.584062,71.1511719 130.352716,71.2095697 130.173028,71.3263672 C129.99334,71.4431646 129.85296,71.5992666 129.751885,71.7946777 C129.650811,71.9900889 129.582306,72.215819 129.546368,72.471875 C129.51043,72.727931 129.492462,72.9929674 129.492462,73.2669922 L129.492462,73.4556641 C129.492462,73.7341811 129.51043,74.0014636 129.546368,74.2575195 C129.582306,74.5135755 129.650811,74.7381826 129.751885,74.9313477 C129.85296,75.1245127 129.99334,75.2783686 130.173028,75.3929199 C130.352716,75.5074713 130.588554,75.5647461 130.880548,75.5647461 Z M139.860469,77.1347656 C139.294451,77.1347656 138.787962,77.0426767 138.340987,76.8584961 C137.894012,76.6743155 137.514426,76.4227555 137.202217,76.1038086 C136.890009,75.7848617 136.651925,75.4108908 136.48796,74.9818848 C136.323994,74.5528787 136.242012,74.0935571 136.242012,73.6039062 L136.242012,73.3411133 C136.242012,72.7885715 136.321748,72.2820824 136.481221,71.8216309 C136.640695,71.3611793 136.867548,70.9647478 137.161788,70.6323242 C137.456028,70.2999007 137.813153,70.0404794 138.233175,69.8540527 C138.653196,69.667626 139.123748,69.5744141 139.644844,69.5744141 C140.170433,69.5744141 140.633124,69.6608878 141.03293,69.8338379 C141.432737,70.006788 141.768525,70.2493637 142.040303,70.5615723 C142.312082,70.8737809 142.516475,71.2499978 142.653487,71.6902344 C142.790499,72.130471 142.859005,72.6201145 142.859005,73.1591797 L142.859005,73.9879883 L138.216329,73.9879883 C138.247774,74.2260754 138.311787,74.4416983 138.40837,74.6348633 C138.504952,74.8280283 138.628486,74.9931145 138.778975,75.130127 C138.929464,75.2671394 139.105781,75.3738277 139.30793,75.4501953 C139.51008,75.5265629 139.736933,75.5647461 139.988497,75.5647461 C140.343381,75.5647461 140.671308,75.498487 140.972286,75.3659668 C141.273264,75.2334466 141.531562,75.0279311 141.747188,74.7494141 L142.704024,75.8208008 C142.587227,75.9870125 142.441232,76.1487297 142.266036,76.305957 C142.09084,76.4631844 141.884201,76.6035638 141.646114,76.7270996 C141.408027,76.8506354 141.139621,76.9494625 140.840889,77.023584 C140.542157,77.0977054 140.215354,77.1347656 139.860469,77.1347656 Z M139.638106,71.1511719 C139.426972,71.1511719 139.241671,71.1882321 139.082198,71.2623535 C138.922724,71.336475 138.785714,71.4397943 138.671163,71.5723145 C138.556611,71.7048346 138.463399,71.8631827 138.391524,72.0473633 C138.319649,72.2315439 138.267989,72.4359364 138.236544,72.6605469 L140.945333,72.6605469 L140.945333,72.5055664 C140.940841,72.3124014 140.912765,72.1327157 140.861104,71.9665039 C140.809444,71.8002921 140.730831,71.6565436 140.625264,71.5352539 C140.519697,71.4139642 140.384933,71.3196292 140.220967,71.2522461 C140.057002,71.1848629 139.862717,71.1511719 139.638106,71.1511719 Z M150.85293,77 L150.85293,71.1376953 L149.768067,71.1376953 L149.768067,69.7091797 L150.85293,69.7091797 L150.85293,69.0757813 C150.85293,68.6624979 150.914697,68.2963883 151.038233,67.9774414 C151.161769,67.6584945 151.339209,67.390089 151.570557,67.1722168 C151.801906,66.9543446 152.082665,66.7892584 152.412843,66.6769531 C152.74302,66.5646479 153.114745,66.5084961 153.528028,66.5084961 C153.703224,66.5084961 153.872803,66.5219725 154.036768,66.5489258 C154.200734,66.575879 154.361328,66.607324 154.518555,66.6432617 L154.498341,68.1526367 C154.336621,68.1122068 154.138967,68.0919922 153.905372,68.0919922 C153.554979,68.0919922 153.284328,68.1762199 153.093409,68.3446777 C152.90249,68.5131356 152.807032,68.7568343 152.807032,69.0757813 L152.807032,69.7091797 L154.255762,69.7091797 L154.255762,71.1376953 L152.807032,71.1376953 L152.807032,77 L150.85293,77 Z M156.423282,73.287207 C156.423282,72.7571263 156.499648,72.2652366 156.652384,71.8115234 C156.805119,71.3578102 157.02748,70.9658708 157.319473,70.6356934 C157.611467,70.3055159 157.971962,70.0460947 158.400968,69.8574219 C158.829974,69.6687491 159.318494,69.5744141 159.866544,69.5744141 C160.419086,69.5744141 160.910975,69.6687491 161.342227,69.8574219 C161.77348,70.0460947 162.13622,70.3055159 162.43046,70.6356934 C162.7247,70.9658708 162.948184,71.3578102 163.100919,71.8115234 C163.253654,72.2652366 163.33002,72.7571263 163.33002,73.287207 L163.33002,73.4287109 C163.33002,73.9632839 163.253654,74.4562966 163.100919,74.9077637 C162.948184,75.3592308 162.7247,75.7500472 162.43046,76.0802246 C162.13622,76.410402 161.775726,76.6687002 161.348966,76.855127 C160.922206,77.0415537 160.432562,77.1347656 159.88002,77.1347656 C159.327479,77.1347656 158.836712,77.0415537 158.407706,76.855127 C157.9787,76.6687002 157.617082,76.410402 157.322843,76.0802246 C157.028603,75.7500472 156.805119,75.3592308 156.652384,74.9077637 C156.499648,74.4562966 156.423282,73.9632839 156.423282,73.4287109 L156.423282,73.287207 Z M158.370645,73.4287109 C158.370645,73.7251968 158.397598,74.0037096 158.451505,74.2642578 C158.505411,74.524806 158.591885,74.7505362 158.710929,74.9414551 C158.829972,75.132374 158.984951,75.2839838 159.17587,75.3962891 C159.366789,75.5085943 159.601503,75.5647461 159.88002,75.5647461 C160.149553,75.5647461 160.379775,75.5085943 160.570694,75.3962891 C160.761613,75.2839838 160.917715,75.132374 161.039005,74.9414551 C161.160294,74.7505362 161.247891,74.524806 161.301798,74.2642578 C161.355704,74.0037096 161.382657,73.7251968 161.382657,73.4287109 L161.382657,73.287207 C161.382657,72.9997056 161.355704,72.7268079 161.301798,72.4685059 C161.247891,72.2102038 161.160294,71.9833506 161.039005,71.7879395 C160.917715,71.5925283 160.76049,71.4375494 160.567325,71.322998 C160.37416,71.2084467 160.140569,71.1511719 159.866544,71.1511719 C159.597011,71.1511719 159.366789,71.2084467 159.17587,71.322998 C158.984951,71.4375494 158.829972,71.5925283 158.710929,71.7879395 C158.591885,71.9833506 158.505411,72.2102038 158.451505,72.4685059 C158.397598,72.7268079 158.370645,72.9997056 158.370645,73.287207 L158.370645,73.4287109 Z M170.086309,71.5352539 C169.987481,71.5217773 169.871808,71.5094239 169.739288,71.4981934 C169.606768,71.4869628 169.488849,71.4813477 169.385528,71.4813477 C169.00369,71.4813477 168.694856,71.5453607 168.459015,71.6733887 C168.223173,71.8014167 168.049103,71.9867175 167.936798,72.2292969 L167.936798,77 L165.989434,77 L165.989434,69.7091797 L167.828985,69.7091797 L167.882891,70.578418 C168.067072,70.2639633 168.293925,70.0180185 168.563458,69.8405762 C168.83299,69.6631339 169.14744,69.5744141 169.506817,69.5744141 C169.610138,69.5744141 169.719073,69.5833983 169.833624,69.6013672 C169.948175,69.619336 170.041387,69.6395507 170.113263,69.6620117 L170.086309,71.5352539 Z M179.205528,69.7091797 L179.266173,70.5245117 C179.508752,70.2280259 179.804111,69.9955575 180.152257,69.8270996 C180.500403,69.6586417 180.903573,69.5744141 181.361778,69.5744141 C181.797523,69.5744141 182.182724,69.6620108 182.517393,69.837207 C182.852063,70.0124032 183.111484,70.2954082 183.295665,70.6862305 C183.533752,70.3403303 183.833603,70.0685557 184.195226,69.8708984 C184.556848,69.6732412 184.986971,69.5744141 185.485606,69.5744141 C185.840491,69.5744141 186.162802,69.6238276 186.45255,69.7226562 C186.742297,69.8214849 186.989365,69.9809559 187.193761,70.2010742 C187.398156,70.4211925 187.555381,70.7075666 187.66544,71.0602051 C187.7755,71.4128436 187.830528,71.8452123 187.830528,72.3573242 L187.830528,77 L185.876427,77 L185.876427,72.3573242 C185.876427,72.1147449 185.850597,71.9148445 185.798936,71.7576172 C185.747276,71.6003898 185.674279,71.477979 185.579942,71.3903809 C185.485606,71.3027828 185.371056,71.2421388 185.23629,71.2084473 C185.101524,71.1747557 184.948791,71.1579102 184.778087,71.1579102 C184.477109,71.1579102 184.225549,71.2331535 184.023399,71.3836426 C183.82125,71.5341316 183.668517,71.7374011 183.565196,71.993457 C183.565196,72.0159181 183.566319,72.0406249 183.568565,72.0675781 C183.570811,72.0945314 183.571935,72.1192382 183.571935,72.1416992 L183.571935,77 L181.624571,77 L181.624571,72.3708008 C181.624571,72.1282214 181.599864,71.9283211 181.55045,71.7710938 C181.501036,71.6138664 181.429162,71.4903325 181.334825,71.4004883 C181.240489,71.3106441 181.124816,71.2477541 180.987804,71.2118164 C180.850791,71.1758787 180.696935,71.1579102 180.526231,71.1579102 C180.23873,71.1579102 179.996154,71.2185541 179.798497,71.3398438 C179.60084,71.4611334 179.443615,71.6295888 179.326817,71.8452148 L179.326817,77 L177.379454,77 L177.379454,69.7091797 L179.205528,69.7091797 Z M195.152833,76.2587891 C194.92373,76.5373061 194.645217,76.7529289 194.317286,76.9056641 C193.989355,77.0583992 193.603031,77.1347656 193.158302,77.1347656 C192.798925,77.1347656 192.470999,77.084229 192.174513,76.9831543 C191.878027,76.8820796 191.623098,76.7226085 191.409718,76.5047363 C191.196338,76.2868641 191.031252,76.0061052 190.914454,75.6624512 C190.797657,75.3187971 190.739259,74.906643 190.739259,74.4259766 L190.739259,69.7091797 L192.686622,69.7091797 L192.686622,74.4394531 C192.686622,74.6416026 192.712452,74.8145501 192.764112,74.9583008 C192.815773,75.1020515 192.887647,75.2177242 192.979737,75.3053223 C193.071828,75.3929204 193.180762,75.4569334 193.306544,75.4973633 C193.432326,75.5377932 193.571582,75.5580078 193.724317,75.5580078 C194.07471,75.5580078 194.359961,75.4973639 194.580079,75.3760742 C194.800197,75.2547845 194.968653,75.0863292 195.08545,74.8707031 L195.08545,69.7091797 L197.039552,69.7091797 L197.039552,77 L195.206739,77 L195.152833,76.2587891 Z M203.91713,74.9852539 C203.91713,74.8819331 203.896915,74.7875981 203.856485,74.7022461 C203.816055,74.6168941 203.739689,74.5371586 203.627384,74.4630371 C203.515079,74.3889156 203.362346,74.3181644 203.169181,74.2507813 C202.976016,74.1833981 202.726702,74.118262 202.421231,74.0553711 C202.048378,73.9745113 201.703606,73.8734381 201.386905,73.7521484 C201.070204,73.6308588 200.796184,73.480372 200.564835,73.3006836 C200.333486,73.1209952 200.152677,72.9121106 200.022403,72.6740234 C199.892129,72.4359363 199.826993,72.1596695 199.826993,71.8452148 C199.826993,71.5397446 199.893252,71.2500014 200.025772,70.9759766 C200.158293,70.7019518 200.349209,70.4604991 200.598526,70.2516113 C200.847844,70.0427236 201.15331,69.8776373 201.514933,69.7563477 C201.876556,69.635058 202.284217,69.5744141 202.737931,69.5744141 C203.209613,69.5744141 203.63412,69.6328119 204.011466,69.7496094 C204.388811,69.8664068 204.708877,70.029247 204.971671,70.2381348 C205.234465,70.4470225 205.436612,70.6952134 205.578116,70.9827148 C205.719621,71.2702163 205.790372,71.5846663 205.790372,71.9260742 L203.843009,71.9260742 C203.843009,71.6475572 203.753166,71.4173349 203.573478,71.2354004 C203.393789,71.0534659 203.11303,70.9625 202.731192,70.9625 C202.403261,70.9625 202.149455,71.0366204 201.969767,71.1848633 C201.790078,71.3331062 201.700235,71.5217762 201.700235,71.7508789 C201.700235,71.8586919 201.723819,71.95415 201.770987,72.0372559 C201.818156,72.1203617 201.894522,72.1967282 202.000089,72.2663574 C202.105656,72.3359867 202.244912,72.3999997 202.417862,72.4583984 C202.590812,72.5167972 202.803066,72.5707029 203.05463,72.6201172 C203.449944,72.6964848 203.816054,72.7908198 204.15297,72.903125 C204.489885,73.0154302 204.780752,73.1603018 205.025577,73.3377441 C205.270403,73.5151864 205.462442,73.7308093 205.6017,73.9846191 C205.740959,74.238429 205.810587,74.5450177 205.810587,74.9043945 C205.810587,75.2278336 205.738713,75.5254381 205.594962,75.7972168 C205.451211,76.0689955 205.245696,76.3037099 204.978409,76.5013672 C204.711123,76.6990244 204.388811,76.8540033 204.011466,76.9663086 C203.63412,77.0786138 203.211859,77.1347656 202.744669,77.1347656 C202.232557,77.1347656 201.781097,77.0628913 201.390274,76.9191406 C200.999452,76.7753899 200.670403,76.5867199 200.403116,76.353125 C200.13583,76.1195301 199.934806,75.8567397 199.80004,75.5647461 C199.665274,75.2727524 199.597892,74.9785171 199.597892,74.6820312 L201.444181,74.6820312 C201.453165,74.8707041 201.494717,75.0335442 201.568839,75.1705566 C201.64296,75.307569 201.740664,75.4187496 201.861954,75.5041016 C201.983244,75.5894536 202.123623,75.6523435 202.283097,75.6927734 C202.44257,75.7332033 202.609902,75.753418 202.785099,75.753418 C203.157952,75.753418 203.439834,75.6826667 203.630753,75.5411621 C203.821672,75.3996575 203.91713,75.2143566 203.91713,74.9852539 Z M210.579083,77 L208.624981,77 L208.624981,69.7091797 L210.579083,69.7091797 L210.579083,77 Z M208.510431,67.8224609 C208.510431,67.5304673 208.608135,67.2901377 208.803546,67.1014648 C208.998957,66.912792 209.265117,66.818457 209.602032,66.818457 C209.768244,66.818457 209.918731,66.8431638 210.053497,66.8925781 C210.188263,66.9419924 210.302813,67.0116206 210.397149,67.1014648 C210.491486,67.191309 210.564483,67.2979974 210.616144,67.4215332 C210.667804,67.545069 210.693634,67.6787102 210.693634,67.8224609 C210.693634,67.9707039 210.667804,68.1065912 210.616144,68.230127 C210.564483,68.3536627 210.491486,68.4603511 210.397149,68.5501953 C210.302813,68.6400395 210.188263,68.7096677 210.053497,68.759082 C209.918731,68.8084963 209.768244,68.8332031 209.602032,68.8332031 C209.435821,68.8332031 209.285334,68.8084963 209.150567,68.759082 C209.015801,68.7096677 208.901252,68.6400395 208.806915,68.5501953 C208.712579,68.4603511 208.639581,68.3536627 208.587921,68.230127 C208.536261,68.1065912 208.510431,67.9707039 208.510431,67.8224609 Z M216.675021,75.5647461 C216.854709,75.5647461 217.018672,75.5389163 217.166915,75.4872559 C217.315158,75.4355954 217.443184,75.3625981 217.550997,75.2682617 C217.65881,75.1739253 217.743038,75.0604987 217.803683,74.9279785 C217.864328,74.7954583 217.896896,74.6460946 217.901388,74.4798828 L219.727462,74.4798828 C219.72297,74.8662129 219.642111,75.2222152 219.484884,75.5479004 C219.327657,75.8735856 219.11428,76.1543445 218.844747,76.3901855 C218.575215,76.6260266 218.257395,76.8090814 217.89128,76.9393555 C217.525165,77.0696296 217.13098,77.1347656 216.708712,77.1347656 C216.142694,77.1347656 215.648558,77.0393076 215.22629,76.8483887 C214.804022,76.6574697 214.453635,76.3969255 214.175118,76.066748 C213.896601,75.7365706 213.687717,75.3480003 213.548458,74.9010254 C213.4092,74.4540505 213.339571,73.9722682 213.339571,73.4556641 L213.339571,73.2669922 C213.339571,72.750388 213.4092,72.2674827 213.548458,71.8182617 C213.687717,71.3690407 213.896601,70.9782243 214.175118,70.6458008 C214.453635,70.3133772 214.802899,70.0517099 215.222921,69.860791 C215.642943,69.6698721 216.133709,69.5744141 216.695235,69.5744141 C217.144456,69.5744141 217.554364,69.6406732 217.924972,69.7731934 C218.295579,69.9057136 218.613398,70.0955066 218.878439,70.3425781 C219.143479,70.5896497 219.350118,70.8895002 219.49836,71.2421387 C219.646603,71.5947772 219.72297,71.9889627 219.727462,72.424707 L217.901388,72.424707 C217.896896,72.2495108 217.866574,72.0844246 217.810421,71.9294434 C217.754268,71.7744621 217.674533,71.6396978 217.571212,71.5251465 C217.467891,71.4105951 217.339865,71.3196292 217.18713,71.2522461 C217.034395,71.1848629 216.859201,71.1511719 216.661544,71.1511719 C216.378535,71.1511719 216.147189,71.2095697 215.967501,71.3263672 C215.787813,71.4431646 215.647433,71.5992666 215.546358,71.7946777 C215.445284,71.9900889 215.376779,72.215819 215.340841,72.471875 C215.304903,72.727931 215.286935,72.9929674 215.286935,73.2669922 L215.286935,73.4556641 C215.286935,73.7341811 215.304903,74.0014636 215.340841,74.2575195 C215.376779,74.5135755 215.445284,74.7381826 215.546358,74.9313477 C215.647433,75.1245127 215.787813,75.2783686 215.967501,75.3929199 C216.147189,75.5074713 216.383027,75.5647461 216.675021,75.5647461 Z M224.354454,77 L222.400353,77 L222.400353,69.7091797 L224.354454,69.7091797 L224.354454,77 Z M222.285802,67.8224609 C222.285802,67.5304673 222.383506,67.2901377 222.578917,67.1014648 C222.774328,66.912792 223.040488,66.818457 223.377403,66.818457 C223.543615,66.818457 223.694102,66.8431638 223.828868,66.8925781 C223.963635,66.9419924 224.078184,67.0116206 224.172521,67.1014648 C224.266857,67.191309 224.339854,67.2979974 224.391515,67.4215332 C224.443175,67.545069 224.469005,67.6787102 224.469005,67.8224609 C224.469005,67.9707039 224.443175,68.1065912 224.391515,68.230127 C224.339854,68.3536627 224.266857,68.4603511 224.172521,68.5501953 C224.078184,68.6400395 223.963635,68.7096677 223.828868,68.759082 C223.694102,68.8084963 223.543615,68.8332031 223.377403,68.8332031 C223.211192,68.8332031 223.060705,68.8084963 222.925939,68.759082 C222.791172,68.7096677 222.676623,68.6400395 222.582286,68.5501953 C222.48795,68.4603511 222.414953,68.3536627 222.363292,68.230127 C222.311632,68.1065912 222.285802,67.9707039 222.285802,67.8224609 Z M231.643068,77 C231.553223,76.8248038 231.488087,76.6069349 231.447657,76.3463867 C231.25,76.566505 231.001809,76.7529289 230.703077,76.9056641 C230.404345,77.0583992 230.039359,77.1347656 229.608107,77.1347656 C229.257714,77.1347656 228.930911,77.0808599 228.627687,76.9730469 C228.324463,76.8652338 228.061672,76.7147471 227.839308,76.521582 C227.616943,76.328417 227.442873,76.0981947 227.317091,75.8309082 C227.191309,75.5636217 227.128419,75.2705094 227.128419,74.9515625 C227.128419,74.5697247 227.19917,74.2305679 227.340675,73.934082 C227.48218,73.6375962 227.694433,73.3860362 227.977443,73.1793945 C228.260452,72.9727529 228.611962,72.8155279 229.031984,72.7077148 C229.452005,72.5999018 229.940526,72.5459961 230.49756,72.5459961 L231.366798,72.5459961 L231.366798,72.1282227 C231.366798,71.7913069 231.280324,71.5217784 231.107374,71.3196289 C230.934424,71.1174795 230.661526,71.0164063 230.288673,71.0164063 C229.960742,71.0164063 229.703567,71.0950187 229.51714,71.2522461 C229.330713,71.4094734 229.237501,71.6250963 229.237501,71.8991211 L227.290138,71.8991211 C227.290138,71.5846664 227.363135,71.2859389 227.509132,71.0029297 C227.655129,70.7199205 227.86289,70.4728526 228.132423,70.2617188 C228.401956,70.0505849 228.727636,69.8832526 229.109474,69.7597168 C229.491312,69.636181 229.918065,69.5744141 230.389747,69.5744141 C230.812015,69.5744141 231.202831,69.6283198 231.562208,69.7361328 C231.921585,69.8439459 232.231543,70.0045399 232.492091,70.2179199 C232.752639,70.4312999 232.955909,70.6985824 233.101905,71.0197754 C233.247902,71.3409684 233.3209,71.7149393 233.3209,72.1416992 L233.3209,75.227832 C233.3209,75.4344737 233.327638,75.6197746 233.341114,75.7837402 C233.354591,75.9477059 233.37256,76.0959466 233.395021,76.2284668 C233.417482,76.360987 233.446681,76.4800288 233.482618,76.5855957 C233.518556,76.6911626 233.561231,76.7911128 233.610646,76.8854492 L233.610646,77 L231.643068,77 Z M230.032618,75.6456055 C230.19883,75.6456055 230.352686,75.6253908 230.494191,75.5849609 C230.635695,75.544531 230.762598,75.4917484 230.874903,75.4266113 C230.987209,75.3614743 231.084913,75.2862309 231.168019,75.2008789 C231.251125,75.1155269 231.317384,75.0279301 231.366798,74.9380859 L231.366798,73.6847656 L230.564943,73.6847656 C230.308887,73.6847656 230.086526,73.7128415 229.897853,73.7689941 C229.70918,73.8251468 229.554201,73.9037593 229.432911,74.004834 C229.311622,74.1059087 229.221779,74.2249505 229.16338,74.3619629 C229.104981,74.4989753 229.075782,74.648339 229.075782,74.8100586 C229.075782,75.0526379 229.161133,75.2525383 229.331837,75.4097656 C229.502541,75.566993 229.736132,75.6456055 230.032618,75.6456055 Z M238.069181,69.7091797 L238.129825,70.5514648 C238.381389,70.2370101 238.684609,69.9955575 239.039493,69.8270996 C239.394378,69.6586417 239.789687,69.5744141 240.225431,69.5744141 C240.571331,69.5744141 240.885781,69.6227046 241.16879,69.7192871 C241.451799,69.8158696 241.694375,69.9742176 241.896525,70.1943359 C242.098674,70.4144542 242.254776,70.7019514 242.364835,71.0568359 C242.474894,71.4117205 242.529923,71.8474584 242.529923,72.3640625 L242.529923,77 L240.58256,77 L240.58256,72.3505859 C240.58256,72.116991 240.55673,71.9238289 240.50507,71.7710938 C240.453409,71.6183586 240.378166,71.4970708 240.279337,71.4072266 C240.180509,71.3173824 240.059221,71.2533693 239.91547,71.2151855 C239.771719,71.1770018 239.60551,71.1579102 239.416837,71.1579102 C239.129336,71.1579102 238.883391,71.2208002 238.678995,71.346582 C238.4746,71.4723639 238.309514,71.6430653 238.183732,71.8586914 L238.183732,77 L236.236368,77 L236.236368,69.7091797 L238.069181,69.7091797 Z M249.41424,74.9852539 C249.41424,74.8819331 249.394025,74.7875981 249.353595,74.7022461 C249.313165,74.6168941 249.236799,74.5371586 249.124493,74.4630371 C249.012188,74.3889156 248.859455,74.3181644 248.66629,74.2507813 C248.473125,74.1833981 248.223811,74.118262 247.918341,74.0553711 C247.545488,73.9745113 247.200716,73.8734381 246.884015,73.7521484 C246.567314,73.6308588 246.293293,73.480372 246.061945,73.3006836 C245.830596,73.1209952 245.649787,72.9121106 245.519513,72.6740234 C245.389239,72.4359363 245.324103,72.1596695 245.324103,71.8452148 C245.324103,71.5397446 245.390362,71.2500014 245.522882,70.9759766 C245.655402,70.7019518 245.846318,70.4604991 246.095636,70.2516113 C246.344954,70.0427236 246.650419,69.8776373 247.012042,69.7563477 C247.373665,69.635058 247.781327,69.5744141 248.23504,69.5744141 C248.706722,69.5744141 249.13123,69.6328119 249.508575,69.7496094 C249.885921,69.8664068 250.205986,70.029247 250.468781,70.2381348 C250.731575,70.4470225 250.933721,70.6952134 251.075226,70.9827148 C251.21673,71.2702163 251.287482,71.5846663 251.287482,71.9260742 L249.340118,71.9260742 C249.340118,71.6475572 249.250276,71.4173349 249.070587,71.2354004 C248.890899,71.0534659 248.61014,70.9625 248.228302,70.9625 C247.900371,70.9625 247.646565,71.0366204 247.466876,71.1848633 C247.287188,71.3331062 247.197345,71.5217762 247.197345,71.7508789 C247.197345,71.8586919 247.220929,71.95415 247.268097,72.0372559 C247.315265,72.1203617 247.391632,72.1967282 247.497198,72.2663574 C247.602765,72.3359867 247.742022,72.3999997 247.914972,72.4583984 C248.087922,72.5167972 248.300176,72.5707029 248.55174,72.6201172 C248.947054,72.6964848 249.313164,72.7908198 249.650079,72.903125 C249.986995,73.0154302 250.277861,73.1603018 250.522687,73.3377441 C250.767512,73.5151864 250.959551,73.7308093 251.09881,73.9846191 C251.238068,74.238429 251.307697,74.5450177 251.307697,74.9043945 C251.307697,75.2278336 251.235822,75.5254381 251.092072,75.7972168 C250.948321,76.0689955 250.742805,76.3037099 250.475519,76.5013672 C250.208232,76.6990244 249.885921,76.8540033 249.508575,76.9663086 C249.13123,77.0786138 248.708968,77.1347656 248.241779,77.1347656 C247.729667,77.1347656 247.278206,77.0628913 246.887384,76.9191406 C246.496562,76.7753899 246.167512,76.5867199 245.900226,76.353125 C245.632939,76.1195301 245.431916,75.8567397 245.29715,75.5647461 C245.162383,75.2727524 245.095001,74.9785171 245.095001,74.6820312 L246.94129,74.6820312 C246.950275,74.8707041 246.991827,75.0335442 247.065948,75.1705566 C247.14007,75.307569 247.237774,75.4187496 247.359064,75.5041016 C247.480353,75.5894536 247.620733,75.6523435 247.780206,75.6927734 C247.93968,75.7332033 248.107012,75.753418 248.282208,75.753418 C248.655062,75.753418 248.936944,75.6826667 249.127863,75.5411621 C249.318781,75.3996575 249.41424,75.2143566 249.41424,74.9852539 Z" id="Deliberate-practice"></path>
            </g>
        </g>
    </g>
</svg>
