<svg xmlns="http://www.w3.org/2000/svg" width="118" height="32" viewBox="0 0 118 32">
<g fill="none" fill-rule="evenodd">
<path fill="#EA2839" d="M0 32h32V0H0z"></path>
<path fill="#FFF" d="M23.058 8.242l-1.073 3.616c-1.209 4.068-1.203 5.002-1.203 5.002s-.024-.89-1.166-4.895l-.385-1.317c-.128-.436-.46-.8-.916-.943a1.37 1.37 0 0 0-1.718.936l-.802 2.733c-1.507 4.991-1.495 5.854-1.495 5.854s-.012-.863-1.41-5.68l-.093-.341a1.4 1.4 0 0 0-.953-1.106 1.371 1.371 0 0 0-1.718.937S7.15 23.68 6.097 26.523c1.454.456 2.992-.383 3.437-1.872v-.002l.005.002.397-1.43c1.501-4.856 1.483-5.721 1.483-5.721s-.006.865 1.199 4.9l.36 1.269c.137.416.46.761.903.9a1.37 1.37 0 0 0 1.718-.936l.67-2.248c1.626-5.465 1.624-6.15 1.624-6.15s.015.642.933 3.956l.617 2.003c.127.438.459.805.917.948a1.37 1.37 0 0 0 1.712-.916s3.23-11.763 4.423-14.857c-1.453-.455-2.992.383-3.437 1.873"></path>
<path fill="#000" d="M47.728 22.627l-2.27-10.421h-.09c.103.803.155 1.54.155 2.21v8.211h-2.059V10.39h3.415l2.042 9.618h.066l2.026-9.618h3.463v12.238h-2.108v-8.295c0-.686.038-1.39.115-2.11h-.066l-2.262 10.405h-2.427zM59.277 21.054c.397 0 .715-.183.952-.549.237-.365.355-.852.355-1.46v-.787l-.67.033c-.496.029-.86.174-1.09.435-.232.263-.348.653-.348 1.173 0 .77.267 1.155.801 1.155zm1.887 1.574l-.433-1.273h-.049c-.322.547-.653.924-.996 1.13-.344.207-.776.31-1.3.31-.67 0-1.196-.256-1.58-.77-.384-.514-.576-1.228-.576-2.143 0-.982.262-1.712.789-2.189.524-.477 1.31-.74 2.356-.791l1.209-.05v-.67c0-.87-.368-1.306-1.103-1.306-.545 0-1.17.217-1.879.653l-.751-1.54a5.316 5.316 0 0 1 2.949-.88c.964 0 1.697.284 2.201.85.504.567.756 1.369.756 2.407v6.262h-1.593zM73.684 20.911c-.49 0-.735-.312-.735-.937v-4.905h1.65v-1.767h-1.65v-2.009H71.56l-.556 1.976-.047.033H67.19v-2.009h-1.389l-.555 1.976-1.136.804v.996h.883v4.83c0 .965.19 1.69.571 2.172.382.482.967.724 1.757.724.708 0 1.239-.126 1.593-.377v-1.741c-.354.156-.684.234-.989.234-.49 0-.735-.312-.735-.937v-4.905h3.561v4.83c0 .965.191 1.69.572 2.172.381.482.967.724 1.756.724.709 0 1.24-.126 1.593-.377v-1.741c-.353.156-.683.234-.988.234M79.32 14.843c-.31 0-.566.168-.768.506-.201.338-.318.861-.35 1.57h2.205c-.012-.681-.112-1.197-.302-1.549-.191-.352-.453-.527-.785-.527m.319 7.952c-1.139 0-2.036-.414-2.692-1.243-.657-.829-.984-2.002-.984-3.52 0-1.54.297-2.743.89-3.608.593-.864 1.422-1.298 2.483-1.298.992 0 1.773.37 2.345 1.11.572.74.858 1.776.858 3.11v1.188h-4.37c.016.832.182 1.45.498 1.854.315.405.751.607 1.307.607.707 0 1.432-.226 2.173-.678v1.833c-.698.43-1.534.645-2.508.645M88.191 13.127c.267 0 .529.042.784.125l-.253 2.16a1.784 1.784 0 0 0-.596-.084c-.529 0-.934.214-1.218.64-.283.427-.424 1.048-.424 1.863v4.796H84.31v-9.325H86.1l.245 1.457h.074c.239-.586.5-1.004.784-1.256.283-.25.612-.376.988-.376M96.956 22.627l-.907-5.416-.319-2.285h-.033c-.081.743-.146 1.28-.195 1.611-.05.333-.396 2.363-1.038 6.09h-2.793l-1.814-9.325h2.181l.833 5.14c.098.569.188 1.404.27 2.503h.05a20.8 20.8 0 0 1 .113-1.352c.066-.605.112-.995.14-1.168l.898-5.123h2.793l.891 5.14c.103.547.193 1.381.27 2.503h.032c.076-.999.172-1.833.286-2.503l.866-5.14h2.123l-1.82 9.325h-2.827zM105.606 21.054c.398 0 .715-.183.952-.549.237-.365.355-.852.355-1.46v-.787l-.67.033c-.496.029-.86.174-1.09.435-.232.263-.348.653-.348 1.173 0 .77.267 1.155.801 1.155zm1.887 1.574l-.433-1.273h-.049c-.321.547-.653.924-.997 1.13-.343.207-.775.31-1.299.31-.67 0-1.196-.256-1.58-.77-.384-.514-.576-1.228-.576-2.143 0-.982.263-1.712.788-2.189.526-.477 1.312-.74 2.357-.791l1.209-.05v-.67c0-.87-.368-1.306-1.103-1.306-.545 0-1.17.217-1.879.653l-.751-1.54a5.318 5.318 0 0 1 2.949-.88c.964 0 1.697.284 2.201.85.504.567.756 1.369.756 2.407v6.262h-1.593zM110.254 13.302h2.254l1.258 5.265c.125.47.226 1.125.302 1.968h.05c.005-.134.03-.373.073-.716.044-.343.079-.612.106-.808.028-.195.404-2.098 1.128-5.709h2.286l-2.605 9.995c-.316 1.228-.736 2.11-1.258 2.645-.523.536-1.22.804-2.091.804a4.27 4.27 0 0 1-1.152-.143v-1.866c.223.066.474.1.751.1.73 0 1.21-.491 1.438-1.473l.155-.586-2.695-9.476z"></path>
</g>
</svg>
