<svg id="logo" xmlns="http://www.w3.org/2000/svg" xmlns:xlink="http://www.w3.org/1999/xlink" x="0px" y="0px" width="148px" height="38px" viewBox="0 0 148 38">
  <path class="logo-mind" fill="##fff" d="M25.879,26.758v-9.627c0-0.496-0.036-0.973-0.106-1.434c-0.07-0.46-0.2-0.855-0.388-1.185
              c-0.182-0.325-0.442-0.599-0.757-0.797c-0.317-0.2-0.734-0.3-1.25-0.3c-0.494,0-0.922,0.106-1.286,0.318
              c-0.364,0.212-0.67,0.496-0.916,0.85c-0.254,0.371-0.439,0.784-0.546,1.22c-0.118,0.46-0.176,0.939-0.176,1.433v9.521h-5.778V16.706
              c0-1.014-0.2-1.817-0.598-2.407c-0.4-0.59-1.034-0.884-1.903-0.884c-0.915,0-1.626,0.365-2.13,1.097
              c-0.506,0.731-0.758,1.628-0.758,2.69v9.556H3.475v-14.51L0.539,9.133h8.536v2.442c0.282-0.378,0.546-0.743,0.864-1.097
              c0.333-0.367,0.719-0.684,1.144-0.938c0.999-0.602,2.145-0.914,3.311-0.903c1.269,0,2.343,0.26,3.224,0.779
              c0.88,0.52,1.567,1.262,2.06,2.23c0.566-0.9,1.339-1.653,2.255-2.195c0.916-0.542,2.031-0.814,3.347-0.814
              c1.197,0,2.201,0.219,3.011,0.655c0.81,0.437,1.462,1.003,1.955,1.699c0.498,0.706,0.862,1.498,1.075,2.336
              c0.223,0.861,0.335,1.705,0.335,2.53V26.76h-5.778L25.879,26.758z M41.853,3.504c0,0.448-0.089,0.867-0.265,1.257
              c-0.176,0.389-0.41,0.725-0.704,1.008c-0.306,0.291-0.665,0.52-1.057,0.673c-0.411,0.165-0.84,0.248-1.286,0.248
              c-0.94,0-1.726-0.313-2.36-0.938c-0.634-0.626-0.951-1.375-0.951-2.248c0-0.425,0.082-0.832,0.247-1.221
              c0.164-0.39,0.399-0.726,0.704-1.009c0.312-0.287,0.669-0.521,1.058-0.69c0.411-0.179,0.854-0.27,1.303-0.265
              c0.446,0,0.875,0.082,1.286,0.247s0.763,0.39,1.057,0.673c0.293,0.283,0.528,0.62,0.704,1.009
              C41.765,2.637,41.854,3.056,41.853,3.504L41.853,3.504z M35.653,26.758V9.132h5.777v17.626H35.653z M57.088,26.758v-9.627
              c0-0.496-0.041-0.968-0.123-1.416c-0.07-0.415-0.208-0.815-0.406-1.186c-0.185-0.338-0.458-0.62-0.792-0.814
              c-0.34-0.2-0.77-0.3-1.286-0.3c-0.517,0-0.969,0.1-1.356,0.3c-0.388,0.2-0.71,0.478-0.969,0.832
              c-0.266,0.369-0.462,0.783-0.581,1.221c-0.13,0.46-0.194,0.938-0.194,1.434v9.556h-5.812V9.132h5.6v2.442h0.071
              c0.212-0.378,0.488-0.75,0.828-1.115c0.34-0.366,0.74-0.678,1.198-0.938s0.957-0.472,1.497-0.637
              c0.56-0.168,1.142-0.251,1.726-0.248c1.174,0,2.172,0.213,2.994,0.637c0.822,0.425,1.486,0.974,1.99,1.646
              c0.515,0.693,0.886,1.481,1.093,2.319c0.223,0.873,0.334,1.746,0.334,2.619v10.901H57.088L57.088,26.758z M80.107,26.758v-2.3
              h-0.069c-0.563,0.896-1.368,1.586-2.413,2.069c-1.043,0.484-2.18,0.732-3.33,0.727c-1.314,0-2.488-0.26-3.521-0.779
              c-1.01-0.5-1.903-1.205-2.625-2.07c-0.729-0.885-1.285-1.898-1.637-2.99c-0.377-1.143-0.568-2.338-0.564-3.54
              c0-1.228,0.194-2.4,0.581-3.522c0.364-1.079,0.926-2.081,1.656-2.955c0.717-0.849,1.605-1.537,2.607-2.017
              c1.021-0.496,2.166-0.744,3.434-0.744c1.293,0,2.385,0.248,3.276,0.744c0.894,0.495,1.586,1.038,2.079,1.628h0.07V0h5.777v26.758
              h-5.318H80.107z M79.896,17.91c0-0.566-0.1-1.121-0.299-1.664c-0.193-0.531-0.479-1.022-0.846-1.451
              c-0.367-0.427-0.816-0.776-1.32-1.027c-0.518-0.26-1.104-0.389-1.762-0.389c-0.681,0-1.279,0.13-1.797,0.39
              c-0.498,0.245-0.941,0.588-1.303,1.008c-0.352,0.413-0.617,0.891-0.793,1.434c-0.176,0.537-0.265,1.098-0.264,1.663
              c0,0.567,0.088,1.127,0.264,1.681c0.176,0.555,0.439,1.045,0.793,1.471c0.352,0.424,0.787,0.766,1.303,1.025
              c0.518,0.26,1.116,0.391,1.797,0.391c0.657,0,1.244-0.131,1.762-0.391c0.517-0.26,0.957-0.602,1.32-1.027
              c0.364-0.424,0.646-0.908,0.846-1.449C79.797,19.029,79.896,18.477,79.896,17.91z"></path>
  <path class="logo-o1" fill="##fff" d="M108,17.874c0,1.44-0.258,2.743-0.775,3.911c-0.488,1.128-1.209,2.141-2.113,2.973
              c-0.904,0.822-1.957,1.465-3.1,1.895c-1.175,0.447-2.431,0.673-3.77,0.673c-1.281,0.006-2.553-0.222-3.751-0.673
              c-1.146-0.424-2.2-1.068-3.101-1.895c-0.879-0.814-1.58-1.805-2.096-2.973c-0.518-1.168-0.775-2.471-0.775-3.91
              c0-1.44,0.258-2.738,0.775-3.894c0.516-1.156,1.215-2.136,2.096-2.938c0.9-0.814,1.955-1.439,3.101-1.84
              c1.204-0.428,2.474-0.644,3.751-0.638c1.339,0,2.595,0.213,3.77,0.638c1.144,0.406,2.196,1.031,3.1,1.84
              c0.904,0.819,1.625,1.82,2.113,2.938C107.742,15.137,108,16.435,108,17.874z M102.434,17.874c0-0.565-0.094-1.12-0.281-1.663
              c-0.178-0.524-0.453-1.011-0.811-1.434c-0.361-0.42-0.805-0.764-1.303-1.009c-0.518-0.26-1.116-0.389-1.797-0.389
              c-0.68,0-1.28,0.13-1.797,0.39c-0.516,0.259-0.945,0.595-1.285,1.008s-0.6,0.891-0.775,1.434c-0.354,1.081-0.354,2.246,0,3.327
              c0.176,0.542,0.44,1.032,0.793,1.469s0.786,0.784,1.303,1.044c0.518,0.26,1.115,0.391,1.797,0.391s1.279-0.131,1.797-0.391
              c0.517-0.26,0.951-0.607,1.303-1.044c0.354-0.437,0.617-0.927,0.793-1.47C102.346,19,102.434,18.439,102.434,17.874z"></path>
  <path class="logo-dot" fill="##fff" d="M117.433,4.185c0,0.448-0.088,0.867-0.265,1.258c-0.176,0.389-0.411,0.725-0.705,1.008
              c-0.305,0.29-0.663,0.52-1.056,0.672c-0.411,0.166-0.84,0.248-1.286,0.248c-0.94,0-1.726-0.312-2.36-0.938
              c-0.634-0.626-0.951-1.375-0.951-2.248c0-0.425,0.082-0.832,0.246-1.221c0.166-0.39,0.4-0.726,0.705-1.009
              c0.312-0.287,0.668-0.52,1.057-0.69c0.41-0.179,0.855-0.27,1.304-0.265c0.446,0,0.875,0.082,1.286,0.247
              c0.41,0.165,0.763,0.39,1.056,0.673c0.294,0.283,0.529,0.62,0.705,1.009C117.345,3.318,117.433,3.738,117.433,4.185L117.433,4.185z"></path>
  <path class="logo-j" fill="##fff" d="M117.009,26.966c0,1.086-0.1,2.117-0.3,3.096c-0.198,0.98-0.558,1.836-1.073,2.567
              c-0.517,0.731-1.232,1.31-2.15,1.734c-0.914,0.425-2.077,0.637-3.486,0.637c-0.398,0-0.833-0.024-1.303-0.069
              c-0.405-0.036-0.807-0.107-1.198-0.213l0.388-4.851c0.211,0.071,0.428,0.118,0.651,0.142c0.224,0.024,0.417,0.036,0.582,0.036
              c0.845,0,1.409-0.29,1.69-0.866c0.281-0.58,0.422-1.316,0.422-2.213V8.879h5.777V26.966z"></path>
  <path class="logo-o2" fill="##fff" d="M139.5,17.874c0,1.44-0.258,2.743-0.775,3.911c-0.488,1.128-1.209,2.141-2.113,2.973
              c-0.904,0.822-1.957,1.465-3.1,1.895c-1.175,0.447-2.431,0.673-3.77,0.673c-1.281,0.006-2.553-0.222-3.751-0.673
              c-1.146-0.424-2.2-1.068-3.101-1.895c-0.879-0.814-1.58-1.805-2.096-2.973c-0.518-1.168-0.775-2.471-0.775-3.91
              c0-1.44,0.258-2.738,0.775-3.894c0.516-1.156,1.215-2.136,2.096-2.938c0.9-0.814,1.955-1.439,3.101-1.84
              c1.204-0.428,2.474-0.644,3.751-0.638c1.339,0,2.595,0.213,3.77,0.638c1.144,0.406,2.196,1.031,3.1,1.84
              c0.904,0.819,1.625,1.82,2.113,2.938C139.242,15.137,139.5,16.435,139.5,17.874z M133.934,17.874c0-0.565-0.094-1.12-0.281-1.663
              c-0.178-0.524-0.453-1.011-0.811-1.434c-0.361-0.42-0.805-0.764-1.303-1.009c-0.518-0.26-1.116-0.389-1.797-0.389
              c-0.68,0-1.28,0.13-1.797,0.39c-0.516,0.259-0.945,0.595-1.285,1.008s-0.6,0.891-0.775,1.434c-0.354,1.081-0.354,2.246,0,3.327
              c0.176,0.542,0.44,1.032,0.793,1.469s0.786,0.784,1.303,1.044c0.518,0.26,1.115,0.391,1.797,0.391s1.279-0.131,1.797-0.391
              c0.517-0.26,0.951-0.607,1.303-1.044c0.354-0.437,0.617-0.927,0.793-1.47C133.846,19,133.934,18.439,133.934,17.874z"></path>
</svg>

