<?xml version="1.0" encoding="UTF-8"?>
<svg width="1444px" height="67px" viewBox="0 0 1444 67" preserveAspectRatio="xMidYMid slice" version="1.1" xmlns="http://www.w3.org/2000/svg" xmlns:xlink="http://www.w3.org/1999/xlink">
    <!-- Generator: Sketch 53.2 (72643) - https://sketchapp.com -->
    <title>separator-2</title>
    <desc>Created with Sketch.</desc>
    <g id="separator-2" stroke="none" stroke-width="1" fill="none" fill-rule="evenodd">
        <g id="Projects-separator" transform="translate(2.000000, 3.000000)" stroke="#050505" stroke-width="3">
            <polyline id="Path-8" points="-1.13686838e-13 60 25 0 25 42 51.5 21 77 42 110.5 21 156 60 207 0 245 30 293 21 320 42 358.5 21 413.5 42 447.5 0 500 42 571 0 580 42 626 21 680 42 720 12.5 793.5 42 854.5 0 920.5 60 986.5 0 1040 42 1067.5 21 1100 42 1142 0 1167.5 60 1211.5 21 1235 42 1275.5 12.5 1310 60 1342 0 1380.5 42 1440 0"></polyline>
        </g>
    </g>
</svg>
